<svg xmlns="http://www.w3.org/2000/svg" viewBox="0 0 800 800"><path d="M701.94 178.91A78.91 78.91 0 00623 100H401.94v157.92h63.17A78.91 78.91 0 01544 336.83V400h157.94z" fill="#3385f8"/><path d="M544 400v63.17a78.91 78.91 0 01-78.91 78.91h-63.15V700H623a78.91 78.91 0 0078.91-78.91V400z" fill="#eceff1"/><path d="M337.35 542.08H101.94v79A78.91 78.91 0 00180.85 700l156.5-.44z" fill="#34a853"/><path d="M675.18 119.7L517.26 277.62a81.33 81.33 0 017.07 7.07l157.92-157.92a81.33 81.33 0 00-7.07-7.07z" fill="#b0bec5"/><path d="M180.85 100a78.91 78.91 0 00-78.91 78.91v79h300V100z" fill="#eceff1"/><path d="M259.86 463.17V336.83a78.91 78.91 0 0178.91-78.91H101.94v284.16h236.83a78.91 78.91 0 01-78.91-78.91z" fill="#fbbd00"/><circle cx="401.94" cy="400" r="37.56" fill="#fbbd00"/><path d="M401.94 438.35a64.59 64.59 0 00-64.59 64.59V542h129.18v-39.1a64.59 64.59 0 00-64.59-64.55z" fill="#eceff1"/><path d="M101.94 542.08l70.8-70.8 70.79 70.8H101.94zm0-71.77l70.8-70.79 70.79 70.79H101.94zm0-70.79l70.8-70.8 70.79 70.8H101.94zm0-70.8l70.8-70.8 70.79 70.8H101.94z" fill="#fff"/><path d="M172.74 542.08v53A30.87 30.87 0 00203.61 626h133.74" stroke="#b0bec5" stroke-width="9" fill="none" stroke-miterlimit="10"/><path d="M539.82 700a162.12 162.12 0 01162.12-162.12" stroke-width="10" stroke="#34a853" fill="none" stroke-miterlimit="10"/><path fill="#cfd8dc" d="M337.35 542.08h129.18v157.48H337.35z"/><path stroke="#eceff1" stroke-width="10" fill="none" stroke-miterlimit="10" d="M337.35 626.01h129.18"/></svg>